<svg width="256" height="256" viewBox="0 0 256 256" fill="none" xmlns="http://www.w3.org/2000/svg">
<path d="M232.001 99.043C225.132 71.353 194.825 61.124 184.228 65.04C166.443 71.55 131.621 114.549 99.4211 146.749C67.2211 178.949 24.2229 213.771 18.7129 195.986C14.7969 185.389 25.0269 155.082 52.7159 148.213L68.7849 110.125L110.124 68.7859L148.213 52.7169C155.082 25.0279 185.39 14.7979 195.987 18.7139C213.772 24.2239 178.949 67.2221 146.749 99.4221C114.549 131.622 71.55 166.444 65.0409 184.229C61.1249 194.826 71.354 225.133 99.043 232.002C126.732 238.871 157.039 228.641 163.908 200.952L200.951 163.909C228.64 157.04 238.87 126.733 232.001 99.043Z" stroke="#D4AF37" stroke-width="16" stroke-linecap="round" stroke-linejoin="round"/>
<path d="M110.124 68.7859L68.7849 110.125" stroke="currentColor" stroke-width="16" stroke-linecap="round" stroke-linejoin="round"/>
<path d="M200.951 163.909L163.908 200.952" stroke="currentColor" stroke-width="16" stroke-linecap="round" stroke-linejoin="round"/>
</svg>
